<svg width="393" height="144" viewBox="0 0 393 144" fill="none" xmlns="http://www.w3.org/2000/svg">
<path d="M99.6875 -67C128.539 -67 154.649 -57.4704 173.502 -42.0781C199.988 -53.7354 237.365 -60.9999 278.787 -61C359.102 -61 424.211 -33.6894 424.211 0C424.211 2.0861 423.96 4.14748 423.473 6.17969C432.251 14.5565 437.478 25.0759 437.478 36.5C437.478 63.2076 408.915 84.974 373.177 85.9639C362.584 112.551 339.383 131 312.465 131C289.323 131 268.928 117.365 256.93 96.6455C244.797 106.693 227.307 113 207.862 113C184.646 113 164.215 104.009 152.363 90.3955C136.911 97.7696 118.908 102 99.6875 102C97.7139 102 95.7531 101.953 93.8066 101.865C83.3317 126.708 59.976 144 32.8438 144C-4.07299 144 -34 111.988 -34 72.5C-34 47.6959 -22.1919 25.8421 -4.26074 13.0186C-1.39084 -31.5661 44.0507 -67 99.6875 -67Z" fill="#521C0D"/>
</svg>
