<svg width="1440" height="373" viewBox="0 0 1440 373" fill="none" xmlns="http://www.w3.org/2000/svg">
<path d="M279 0C385.874 0 482.809 24.0311 553.788 63.0459C592.605 42.7509 638.638 31 688 31C770.117 31 843.024 63.5217 888.816 113.799C935.13 63.2255 1005.15 31 1083.5 31C1120.96 31 1156.52 38.3684 1188.5 51.5869C1222.99 38.4258 1262.08 31 1303.5 31C1442.95 31 1556 115.17 1556 219C1556 322.83 1442.95 407 1303.5 407C1294.4 407 1285.42 406.641 1276.57 405.942C1230.25 455.513 1160.95 487 1083.5 487C993.575 487 914.631 444.553 869.897 380.638C824.171 420.285 759.586 445 688 445C626.15 445 569.525 426.55 525.775 395.96C458.242 426.639 372.418 445 279 445C61.3998 445 -115 345.383 -115 222.5C-115 99.6166 61.3998 0 279 0Z" fill="#521C0D"/>
</svg>
